<svg width="1637" height="1121" viewBox="0 0 1637 1121" fill="none" xmlns="http://www.w3.org/2000/svg">
<g clip-path="url(#clip0_339_563)">
<rect width="1637" height="1120" transform="translate(0 0.339844)" fill="url(#paint0_linear_339_563)"/>
<mask id="mask0_339_563" style="mask-type:luminance" maskUnits="userSpaceOnUse" x="-32" y="0" width="1699" height="1133">
<path d="M1667 0.0556641H-32V1132.72H1667V0.0556641Z" fill="white"/>
</mask>
<g mask="url(#mask0_339_563)">
<path d="M855.739 1073.48V1003.6L789.727 965.495V1040.41L728.268 1075.88V1002.22L663.457 1039.66L600.843 1003.42V934.777C601.79 934.517 602.626 933.957 603.227 933.181C603.827 932.404 604.159 931.454 604.173 930.473C604.169 930.081 604.107 929.692 603.992 929.318L664.024 894.658L664.59 894.341V818.226L599.665 855.672L535.919 818.86L472.172 855.672L409.581 819.426V747.23L474.438 709.784L409.581 672.338V597.424L344.045 635.209L343.479 635.527V707.836L285.147 674.151C285.265 673.777 285.327 673.387 285.328 672.995C285.309 672.018 284.974 671.073 284.374 670.301C283.774 669.529 282.94 668.973 281.998 668.714V526.451L345.178 489.979L345.744 489.662V413.433L280.389 451.219L279.823 451.536V525.137L217.232 561.382L155.751 525.794L217.798 489.979L218.365 489.662V413.433L152.919 451.219L152.353 451.536V597.446L94.0204 563.761C94.1393 563.387 94.2004 562.998 94.2016 562.605C94.1842 561.631 93.853 560.688 93.2572 559.917C92.6613 559.146 91.8327 558.587 90.8942 558.324V488.348L28.2804 452.102L89.7616 416.605L90.8942 417.262V415.948L92.0269 415.291L90.8942 414.634V341.147L30.2966 306.17C30.3969 305.793 30.4501 305.405 30.4552 305.014C30.4792 304.158 30.26 303.312 29.8229 302.576C29.3859 301.839 28.7489 301.241 27.9858 300.852C27.2228 300.462 26.3649 300.297 25.5118 300.375C24.6587 300.454 23.8453 300.772 23.166 301.294C22.4867 301.816 21.9692 302.52 21.6737 303.324C21.3782 304.128 21.3167 305 21.4964 305.837C21.6761 306.675 22.0896 307.445 22.6889 308.057C23.2882 308.669 24.0488 309.099 24.8824 309.296V377.958L-39.9967 415.404L23.7498 452.216L-38.2977 488.031L-38.864 488.348V561.858L-39.9967 562.515L-38.864 563.172V636.773L23.7271 672.972L-38.343 708.81L-38.7961 709.105V785.31L26.5361 747.615L27.1025 747.298V674.943V600.051L86.5448 565.732C87.1113 566.289 87.8144 566.687 88.5836 566.887V636.84L151.175 673.086L89.1953 708.81L88.6289 709.127V782.751L29.1639 817.048C28.692 816.502 28.0965 816.076 27.4269 815.807C26.7573 815.538 26.0331 815.432 25.3145 815.499C24.5959 815.566 23.9038 815.804 23.2957 816.193C22.6876 816.582 22.1812 817.11 21.8186 817.734C21.456 818.358 21.2478 819.06 21.2112 819.781C21.1746 820.501 21.3107 821.22 21.6082 821.878C21.9057 822.535 22.356 823.112 22.9216 823.561C23.4872 824.009 24.1517 824.316 24.8598 824.455V966.628L-38.343 1003.17L-38.7961 1003.6V1079.71V1152.07L24.9277 1188.86V1190.17L26.0604 1189.51L27.1931 1190.17V1188.86L90.3279 1152.32L90.8942 1152V1075.79L29.1639 1111.41C28.32 1110.57 27.181 1110.1 25.9925 1110.09C24.8117 1110.1 23.6819 1110.57 22.8436 1111.41L-35.466 1077.72L24.9277 1042.86L89.8069 1005.41L154.663 1042.92V967.987L217.798 931.56L218.365 931.22V861.267C219.198 861.07 219.959 860.64 220.558 860.028C221.157 859.416 221.571 858.646 221.751 857.808C221.93 856.971 221.869 856.099 221.573 855.295C221.278 854.491 220.76 853.787 220.081 853.266C219.402 852.744 218.588 852.425 217.735 852.346C216.882 852.268 216.024 852.433 215.261 852.823C214.498 853.212 213.861 853.81 213.424 854.547C212.987 855.284 212.768 856.129 212.792 856.986C212.797 857.376 212.85 857.764 212.95 858.141L152.919 892.8L152.353 893.118V965.382L90.9395 929.929V783.996L153.485 747.887L218.365 785.333V710.441L277.807 676.121C278.367 676.675 279.062 677.073 279.823 677.277V747.253L340.421 782.23C340.217 782.971 340.217 783.753 340.421 784.495L280.389 819.154L279.823 819.494V966.582L220.743 1000.72C220.352 1000.08 219.807 999.541 219.156 999.161C218.506 998.781 217.771 998.57 217.018 998.545C216.265 998.521 215.518 998.685 214.844 999.022C214.171 999.359 213.592 999.858 213.16 1000.48C212.728 1001.09 212.456 1001.81 212.37 1002.56C212.284 1003.3 212.386 1004.06 212.667 1004.76C212.947 1005.46 213.398 1006.08 213.977 1006.56C214.557 1007.04 215.247 1007.37 215.986 1007.52V1079.71L279.732 1042.9V1115.21L345.744 1153.31V1077.09L283.198 1040.98L344.702 1005.48L404.167 1039.84C404.063 1040.22 404.002 1040.61 403.986 1041C403.963 1041.85 404.182 1042.7 404.619 1043.43C405.056 1044.17 405.692 1044.77 406.454 1045.16C407.216 1045.54 408.072 1045.71 408.924 1045.63C409.776 1045.56 410.589 1045.24 411.268 1044.72C411.948 1044.2 412.466 1043.5 412.763 1042.69C413.061 1041.89 413.125 1041.02 412.948 1040.19C412.772 1039.35 412.362 1038.58 411.766 1037.96C411.17 1037.35 410.413 1036.92 409.581 1036.72V894.432L472.172 858.186L533.654 893.684L471.606 929.499L471.04 929.839V1003.6L469.907 1004.23L471.04 1004.89V1077.18L407.882 1113.65L407.316 1113.99V1190.19L472.739 1152.41L473.305 1152.09V1079.74L534.786 1115.23V1116.52L535.919 1115.87L600.775 1153.34V1082.05C601.55 1081.86 602.256 1081.46 602.814 1080.89L662.257 1115.21V1190.1L726.003 1153.31L791.426 1115.55L791.992 1115.21V1042.92L850.325 1076.61C850.224 1076.99 850.171 1077.37 850.166 1077.76C850.142 1078.62 850.361 1079.47 850.798 1080.2C851.235 1080.94 851.872 1081.54 852.635 1081.93C853.398 1082.32 854.256 1082.48 855.109 1082.4C855.962 1082.33 856.776 1082.01 857.455 1081.48C858.134 1080.96 858.652 1080.26 858.947 1079.46C859.243 1078.65 859.304 1077.78 859.125 1076.94C858.945 1076.1 858.532 1075.33 857.932 1074.72C857.333 1074.11 856.572 1073.68 855.739 1073.48ZM154.618 452.782L216.099 417.284V488.28L154.618 523.823V452.782ZM24.8371 745.939L-36.5307 781.414V710.441L24.9504 674.966L24.8371 745.939ZM88.6742 1079.71V1150.69L27.1931 1186.18V1118.84C28.1285 1118.58 28.9568 1118.03 29.5563 1117.27C30.1557 1116.5 30.4946 1115.57 30.5231 1114.6C30.509 1114.2 30.4482 1113.81 30.3419 1113.42L88.6742 1079.71ZM24.9277 1118.84V1186.18L-36.5307 1150.69V1079.71L21.8016 1113.4C21.6827 1113.77 21.6216 1114.16 21.6204 1114.55C21.6378 1115.53 21.969 1116.47 22.5648 1117.24C23.1606 1118.01 23.9893 1118.57 24.9277 1118.84ZM726.003 1077.09L664.522 1112.58V1041.63L726.003 1006.14V1077.09ZM598.51 1073.48C597.749 1073.69 597.054 1074.08 596.494 1074.64L538.184 1040.98L598.51 1006.14V1073.48ZM537.052 966.718V895.745L595.497 929.408C595.382 929.783 595.321 930.172 595.316 930.564C595.333 931.538 595.665 932.481 596.26 933.252C596.856 934.023 597.685 934.582 598.623 934.845V1002.22L537.052 966.718ZM598.51 926.282C597.749 926.485 597.054 926.884 596.494 927.437L538.184 893.775L598.51 858.934V926.282ZM535.919 968.689L597.377 1004.16L569.469 1020.29L535.919 1039.66L474.438 1004.16L502.369 988.058L535.919 968.689ZM537.052 1042.92L595.497 1076.61C595.38 1076.98 595.319 1077.37 595.316 1077.76C595.317 1078.16 595.378 1078.55 595.497 1078.92L537.052 1112.61V1042.92ZM662.257 893.118L602.814 927.437C602.248 926.88 601.545 926.482 600.775 926.282V857.643L662.257 822.145V893.118ZM345.835 779.103V711.755L407.316 747.23V818.226L348.984 784.54C349.084 784.163 349.137 783.775 349.142 783.385C349.125 782.41 348.794 781.468 348.198 780.696C347.602 779.925 346.773 779.366 345.835 779.103ZM345.835 787.666C346.6 787.473 347.298 787.074 347.851 786.511L406.161 820.106L345.835 854.947V787.666ZM408.449 745.35L346.967 709.784L377.119 692.386L408.449 674.264L469.907 709.762L408.449 745.35ZM345.835 636.84L407.316 601.343V672.338L345.835 707.836V636.84ZM282.088 452.85L343.569 417.352V488.348L282.088 523.823V452.85ZM279.823 598.738L259.73 610.359L218.365 634.349V563.262L279.823 527.878V598.738ZM216.099 707.836L185.472 690.076L154.731 672.338V601.365L185.472 619.103L216.212 636.84L216.099 707.836ZM154.618 527.878L216.099 563.376V634.349L185.472 616.498L154.731 598.738L154.618 527.878ZM88.6289 558.324C87.8568 558.516 87.1519 558.916 86.5901 559.479L27.1478 525.137V454.164L88.6289 489.662V558.324ZM88.6289 342.46V413.456L27.1478 377.958V309.296C27.9088 309.093 28.6037 308.694 29.1639 308.141L88.6289 342.46ZM26.0151 379.906L87.4962 415.404L27.1478 450.245L26.0151 450.902L24.8824 450.245L-35.466 415.404L26.0151 379.906ZM-36.5307 489.662L24.9504 454.164V525.137L-36.5307 560.635V489.662ZM-36.5307 564.554L24.9504 600.051V671.024L-36.5307 635.549V564.554ZM26.0151 598.103L-35.466 562.605L-7.53448 546.476L26.0151 527.108L85.4801 561.45C85.2487 562.188 85.2487 562.978 85.4801 563.716L26.0151 598.103ZM90.8942 566.887C91.6553 566.684 92.3502 566.285 92.9104 565.732L152.353 600.051V671.024L90.8942 635.549V566.887ZM90.8942 710.441L152.353 674.943V745.939L90.8942 781.414V710.441ZM27.1931 824.455C28.1468 824.193 28.9886 823.626 29.5899 822.841C30.1911 822.055 30.5189 821.095 30.5231 820.106C30.507 819.715 30.4462 819.327 30.3419 818.951L88.6742 785.288V856.351L27.1931 891.826V824.455ZM88.6742 929.929L27.1931 965.404V894.432L88.6742 858.934V929.929ZM24.8371 1040.3L-36.5307 1075.79V1004.8L24.9504 969.301L24.8371 1040.3ZM27.1025 968.032L88.5836 932.534V1003.6L27.1931 1039.01L27.1025 968.032ZM154.527 894.432L213.992 860.112C214.553 860.666 215.248 861.064 216.009 861.267V929.929L154.618 965.404L154.527 894.432ZM152.262 969.301V1039.01L90.9395 1003.6V932.534L152.353 967.987V969.323L152.262 969.301ZM215.963 781.414L154.618 745.939V674.943L185.472 692.704L216.212 710.441L215.963 781.414ZM218.229 707.836V636.84L253.341 616.452L279.687 601.252V668.6C278.749 668.863 277.92 669.422 277.324 670.193C276.728 670.965 276.397 671.907 276.38 672.882C276.381 673.274 276.442 673.664 276.561 674.037L218.229 707.836ZM281.952 745.939V677.39C282.722 677.19 283.425 676.792 283.991 676.235L343.434 710.554V779.103C342.673 779.307 341.978 779.705 341.417 780.259L281.952 745.939ZM281.952 820.831L341.417 786.511C341.971 787.074 342.668 787.473 343.434 787.666V856.351L342.301 857.008L281.952 891.849V820.831ZM281.952 968.078L343.434 932.58V1003.6L281.952 1039.1V968.078ZM343.434 929.975L281.952 965.45V894.432L343.434 858.934V929.975ZM218.115 1075.84V1007.65C219.058 1007.39 219.892 1006.84 220.492 1006.07C221.092 1005.29 221.427 1004.35 221.445 1003.37C221.445 1003.24 221.445 1003.1 221.445 1002.96L279.642 969.346V1040.3L218.115 1075.84ZM343.343 1149.42L281.862 1113.94V1042.9L343.479 1078.35L343.343 1149.42ZM407.18 1036.72C406.411 1036.92 405.708 1037.32 405.141 1037.87L345.835 1003.6V932.534L407.316 968.032L407.18 1036.72ZM345.699 929.975V858.934L407.18 894.432V965.404L345.699 929.975ZM408.313 892.506L346.832 857.031L408.29 821.533L409.445 822.19L469.771 857.031L408.313 892.506ZM535.783 821.533L597.242 857.031L537.052 891.826L535.919 892.461L534.786 891.826L474.438 856.986L535.783 821.533ZM473.169 931.266L534.65 895.791V966.764L473.169 1002.26V931.266ZM470.904 1150.75L409.445 1186.25V1115.23L470.904 1079.74V1150.75ZM473.169 1077.15V1006.14L534.65 1041.63V1112.61L473.169 1077.15ZM538.184 1114.6L596.494 1080.91C597.047 1081.48 597.745 1081.88 598.51 1082.07V1149.42L538.184 1114.6ZM600.775 1073.51V1006.14L662.257 1041.63V1112.61L603.924 1078.92C604.043 1078.55 604.104 1078.16 604.105 1077.76C604.087 1076.79 603.752 1075.84 603.152 1075.07C602.552 1074.3 601.718 1073.74 600.775 1073.48V1073.51ZM664.522 1186.21V1115.21L726.003 1079.74V1150.69L664.522 1186.21ZM789.727 1113.92L728.268 1149.42V1078.35L789.727 1042.86V1113.92ZM791.992 1040.34V969.323L853.473 1004.82V1073.48C852.712 1073.69 852.017 1074.08 851.457 1074.64L791.992 1040.34ZM1685.51 612.579L1621.69 575.767L1683.74 539.952L1684.31 539.635V466.034L1685.44 465.377L1684.31 464.72V391.12L1621.69 354.988L1683.76 319.15L1684.33 318.833V242.627L1618.97 280.413L1618.41 280.73V353.04V427.954L1558.92 462.183C1558.37 461.621 1557.67 461.221 1556.9 461.028V317.542L1493.16 280.753V207.152L1432.56 172.221C1432.68 171.839 1432.74 171.442 1432.74 171.043C1432.74 170.651 1432.68 170.261 1432.56 169.887L1492.57 135.182L1493.14 134.865V62.6011L1554.55 98.0536V246.546L1616.28 210.912C1616.75 211.46 1617.35 211.887 1618.02 212.158C1618.69 212.428 1619.41 212.534 1620.13 212.466C1620.85 212.399 1621.55 212.16 1622.16 211.769C1622.77 211.379 1623.27 210.849 1623.63 210.222C1624 209.596 1624.2 208.893 1624.24 208.17C1624.27 207.448 1624.13 206.728 1623.83 206.07C1623.53 205.413 1623.08 204.837 1622.51 204.39C1621.94 203.944 1621.27 203.64 1620.56 203.505V61.3325L1683.83 24.8154L1684.4 24.4756V-51.7302L1620.58 -14.8733L1555.7 22.5047L1490.85 -14.9412V59.9733L1427.71 96.4225L1427.15 96.7397V166.716C1426.26 167.024 1425.48 167.602 1424.94 168.369C1424.39 169.137 1424.1 170.055 1424.1 170.997C1424.1 171.939 1424.39 172.858 1424.94 173.625C1425.48 174.393 1426.26 174.971 1427.15 175.279V245.255L1490.89 282.044V354.331L1429.41 389.828V317.519L1365.71 280.73V279.416L1364.58 280.073L1363.45 279.416V280.73L1300.24 317.202L1299.68 317.519V393.747L1361.38 358.114C1362.23 358.951 1363.37 359.423 1364.56 359.428C1365.14 359.43 1365.72 359.314 1366.26 359.089C1366.8 358.863 1367.29 358.532 1367.7 358.114L1427.15 392.434V540.949L1492.03 503.48L1554.64 539.726L1617.16 575.767L1555.77 611.265L1554.64 610.608V611.922L1553.51 612.579L1554.64 613.213V686.814L1618.36 723.625V792.288C1617.53 792.489 1616.77 792.922 1616.18 793.535C1615.58 794.149 1615.17 794.919 1615 795.756C1614.82 796.594 1614.88 797.463 1615.18 798.266C1615.48 799.068 1616 799.769 1616.68 800.289C1617.36 800.809 1618.17 801.126 1619.02 801.203C1619.87 801.28 1620.73 801.115 1621.49 800.726C1622.25 800.337 1622.89 799.74 1623.33 799.004C1623.76 798.268 1623.98 797.424 1623.96 796.569C1623.95 796.178 1623.89 795.79 1623.78 795.414L1683.81 760.754L1684.37 760.414V684.186L1620.63 720.975V650.025L1685.51 612.579ZM1620.67 282.044L1682.15 246.546V317.519L1620.67 353.017V282.044ZM1682.11 538.321L1620.63 573.819V502.823L1682.11 467.348V538.321ZM1682.11 463.406L1620.63 427.931V356.936L1682.11 392.434V463.406ZM1619.43 429.88L1680.91 465.377L1652.98 481.507L1619.43 500.875L1559.96 466.533C1560.19 465.795 1560.19 465.005 1559.96 464.267L1619.43 429.88ZM1554.64 392.434V461.096C1553.87 461.283 1553.16 461.683 1552.6 462.251L1523.9 445.669L1493.16 427.931V356.958L1523.9 374.696L1554.64 392.434ZM1556.9 97.9403L1618.32 62.5785V133.551L1556.84 169.026L1556.9 97.9403ZM1556.9 242.514V171.654L1618.39 136.156V203.505C1617.45 203.768 1616.62 204.326 1616.02 205.098C1615.43 205.869 1615.1 206.812 1615.08 207.786C1615.08 208.176 1615.14 208.565 1615.24 208.942L1556.9 242.514ZM1620.67 -12.3134L1682.15 -47.8112V23.1617L1620.67 58.6595V-12.3134ZM1618.41 59.9507L1556.84 95.4485V24.4756L1618.32 -11.0222L1618.41 59.9507ZM1493.11 -11.0222L1554.57 24.4756V95.4485L1493.16 59.9733V58.6368L1493.11 -11.0222ZM1490.85 62.5785V133.551L1431.41 167.871C1430.85 167.303 1430.14 166.903 1429.37 166.716V98.0536L1490.85 62.5785ZM1429.37 243.941V175.279C1430.13 175.091 1430.83 174.691 1431.38 174.123L1490.89 208.466V279.439L1429.37 243.941ZM1554.59 318.856V389.828L1523.85 372.091L1493.11 354.331V283.358L1554.59 318.856ZM1301.94 389.806V318.833L1363.45 283.335V350.706C1362.51 350.969 1361.68 351.528 1361.08 352.299C1360.49 353.07 1360.16 354.013 1360.14 354.988C1360.14 355.378 1360.2 355.766 1360.3 356.143L1301.94 389.806ZM1365.71 350.706V283.358L1427.17 318.833V389.806L1368.86 356.143C1368.96 355.766 1369.01 355.378 1369.02 354.988C1369 354.013 1368.67 353.07 1368.07 352.299C1367.48 351.528 1366.65 350.969 1365.71 350.706ZM1429.43 392.434L1490.92 356.958V427.931L1429.43 463.406V392.434ZM1429.43 466.034L1490.89 430.469V501.464L1429.41 536.939L1429.43 466.034ZM1493.18 501.509V430.469L1523.92 448.229L1551.51 464.086C1551.39 464.46 1551.33 464.849 1551.33 465.241C1551.35 466.219 1551.69 467.164 1552.29 467.936C1552.89 468.707 1553.72 469.264 1554.66 469.523V536.939L1493.18 501.509ZM1556.9 469.659C1557.67 469.456 1558.36 469.057 1558.92 468.503L1618.36 502.823V573.819L1556.9 538.321V469.659ZM1618.36 577.715L1619.5 577.058L1620.63 577.715L1680.98 612.556L1619.43 648.054L1558.04 612.579L1618.36 577.715ZM1556.9 614.527L1618.36 650.025V720.998L1556.9 685.522V614.527ZM1682.11 688.128V759.101L1622.64 793.443C1622.09 792.88 1621.39 792.481 1620.63 792.288V723.625L1682.11 688.128ZM1305.27 244.711C1305.26 244.313 1305.2 243.918 1305.09 243.533L1365.12 208.896L1365.71 208.466V61.3325L1424.77 27.2393C1425.16 27.883 1425.7 28.4191 1426.35 28.799C1427.01 29.1788 1427.74 29.3905 1428.49 29.4149C1429.25 29.4393 1429.99 29.2756 1430.67 28.9386C1431.34 28.6015 1431.92 28.1019 1432.35 27.4848C1432.78 26.8677 1433.05 26.1526 1433.14 25.4043C1433.23 24.656 1433.12 23.898 1432.84 23.1989C1432.56 22.4999 1432.11 21.8818 1431.53 21.4007C1430.95 20.9195 1430.26 20.5905 1429.52 20.4433V-51.7302L1365.71 -14.9412V-87.228L1299.79 -125.331V-49.1251L1362.31 -13.0157L1300.81 22.5047L1241.34 -11.8377C1241.46 -12.2114 1241.52 -12.601 1241.53 -12.9931C1241.53 -14.1947 1241.05 -15.3471 1240.2 -16.1967C1239.35 -17.0464 1238.2 -17.5237 1236.99 -17.5237C1235.79 -17.5237 1234.64 -17.0464 1233.79 -16.1967C1232.94 -15.3471 1232.46 -14.1947 1232.46 -12.9931C1232.48 -12.0157 1232.82 -11.0706 1233.42 -10.2989C1234.02 -9.52727 1234.85 -8.97044 1235.79 -8.71158V58.6368V133.551L1173.34 169.683L1111.86 134.208L1173.9 98.3707L1174.47 98.0536V24.4529L1175.6 23.796L1174.47 23.139V-49.1478L1237.65 -85.6196L1238.22 -85.9368V-162.143L1172.77 -124.379L1172.21 -124.04V-51.7529L1110.72 -87.2507V-88.5646L1109.59 -87.9076L1044.74 -125.354V-54.0862C1043.97 -53.8798 1043.27 -53.4823 1042.7 -52.9309L983.254 -87.2507V-162.12L919.44 -125.331L854.085 -87.5678L853.519 -87.2507V-14.9639L792.038 -50.439V-51.7529L790.905 -51.096L789.772 -51.7529V-50.439L727.181 -14.1937L662.302 -51.7529V23.139L600.843 58.6368V-13.5367L534.832 -51.7529L471.108 -88.5646V-13.5367L411.643 20.6698C411.018 20.0145 410.211 19.5614 409.327 19.3689C408.442 19.1764 407.52 19.2533 406.68 19.5898C405.839 19.9262 405.119 20.5067 404.611 21.2564C404.104 22.0061 403.833 22.8907 403.833 23.796C403.833 24.7013 404.104 25.5858 404.611 26.3355C405.119 27.0853 405.839 27.6658 406.68 28.0022C407.52 28.3386 408.442 28.4155 409.327 28.223C410.211 28.0305 411.018 27.5774 411.643 26.9221L471.108 61.2193V136.156L536.599 98.3707L537.165 98.0536V25.7668L598.578 61.2193V136.156L660.286 100.523C660.846 101.077 661.541 101.475 662.302 101.678V171.632L728.314 209.757V136.156L792.038 172.945V96.7397L729.446 60.6076L790.905 25.1098L855.784 62.5558V-12.3361L917.174 -47.8339V96.7623L853.994 133.234L853.428 133.551V209.757L915.136 174.146C915.98 174.983 917.119 175.455 918.307 175.46C919.322 175.354 920.271 174.909 921.001 174.197C921.731 173.485 922.2 172.547 922.331 171.536C922.462 170.524 922.248 169.498 921.723 168.623C921.198 167.749 920.394 167.077 919.44 166.716V98.0536L982.597 61.5817L983.164 61.2646V-11.0222L1044.64 24.4529V93.1152C1043.71 93.3978 1042.9 93.9736 1042.32 94.7571C1041.74 95.5406 1041.43 96.4901 1041.43 97.4646C1041.43 97.8548 1041.49 98.2428 1041.59 98.6199L981.555 133.28L980.989 133.619V209.757L1045.87 172.221L1109.59 209.01L1173.34 172.221L1237.08 209.01L1299.68 172.764V240.113C1298.84 240.314 1298.09 240.747 1297.49 241.36C1296.9 241.974 1296.49 242.744 1296.31 243.581C1296.13 244.418 1296.2 245.288 1296.49 246.091C1296.79 246.893 1297.31 247.594 1297.99 248.114C1298.67 248.634 1299.48 248.951 1300.33 249.028C1301.19 249.105 1302.04 248.94 1302.8 248.551C1303.57 248.162 1304.2 247.565 1304.64 246.829C1305.07 246.094 1305.29 245.249 1305.27 244.394V244.711ZM1363.45 207.129L1304 241.449C1303.43 240.9 1302.73 240.51 1301.96 240.317V171.654L1303.1 170.997L1363.45 136.156V207.129ZM1238.22 62.5558L1299.68 98.0536V169.026L1238.22 133.551V62.5558ZM1301.94 98.0536L1363.45 62.5785V133.551L1301.94 169.026V98.0536ZM1363.45 59.9507L1301.94 95.4485V24.4756L1363.45 -11.0222V59.9507ZM1427.28 -47.8112V20.4433C1426.34 20.7063 1425.52 21.2649 1424.92 22.0361C1424.32 22.8074 1423.99 23.7503 1423.97 24.7247C1423.97 24.8833 1423.97 25.0193 1423.97 25.1552L1365.71 58.6595V-12.3134L1427.28 -47.8112ZM1302.05 -121.412L1363.45 -85.9141V-14.9412L1302.05 -50.4163V-121.412ZM1238.22 -8.71158C1238.98 -8.90456 1239.68 -9.30421 1240.23 -9.86688L1299.68 24.4756V95.4258L1238.22 59.9507V-8.71158ZM1109.59 59.2484L1048.13 23.796L1076.07 7.68945L1109.59 -11.6792L1171.07 23.796L1143.14 39.9251L1109.59 59.2484ZM1047 -45.5006C1047.76 -45.7113 1048.45 -46.1085 1049.02 -46.6559L1107.33 -12.9931L1047 21.8478V-45.5006ZM1108.46 -14.9639L1050.15 -48.6267C1050.25 -49.0119 1050.3 -49.4072 1050.31 -49.8047C1050.3 -50.1946 1050.25 -50.5823 1050.15 -50.96L1108.46 -84.6229V-14.9639ZM1108.46 61.2646V132.237L1050.15 98.552C1050.25 98.1749 1050.3 97.7868 1050.31 97.3966C1050.29 96.4222 1049.96 95.4793 1049.36 94.708C1048.77 93.9367 1047.94 93.3782 1047 93.1152V25.7668L1108.46 61.2646ZM1047 101.678C1047.77 101.485 1048.46 101.085 1049.02 100.523L1107.33 134.208L1047 169.026V101.678ZM1172.21 96.7397L1110.72 132.237V61.2193L1172.21 25.7215V96.7397ZM1174.47 -122.726L1235.95 -158.224V-87.2507L1174.47 -51.7529V-122.726ZM1172.21 -49.1478V21.8478L1110.72 -13.5367V-84.6229L1172.21 -49.1478ZM1107.33 -86.5937L1049.02 -52.9309C1048.46 -53.4847 1047.76 -53.8829 1047 -54.0862V-121.435L1107.33 -86.5937ZM980.989 -158.201V-87.2507L919.44 -51.7529V-122.703L980.989 -158.201ZM789.772 -47.8339V23.139L728.314 58.6368V-12.3361L789.772 -47.8339ZM664.567 -47.8339L726.048 -12.3361V58.6368L695.308 40.8313L664.567 23.071V-47.8339ZM726.048 132.237L695.308 114.477L667.716 98.6199C667.855 98.2477 667.946 97.8596 667.988 97.4646C667.969 96.4872 667.635 95.5421 667.034 94.7705C666.434 93.9988 665.601 93.442 664.658 93.1831V25.7668L695.398 43.5044L726.048 61.2193V132.237ZM598.578 58.6368L537.097 23.139V-47.8339L598.578 -12.3361V58.6368ZM473.373 -84.6455L534.832 -49.1478V21.8478L473.373 -13.5367V-84.6455ZM412.775 22.7086L472.218 -11.6792L533.699 23.796L505.767 39.9251L472.24 59.2937L412.775 24.9739C412.979 24.2325 412.979 23.45 412.775 22.7086ZM534.832 96.8076L473.373 132.237V61.2193L534.832 25.7215V96.8076ZM600.843 132.305V61.2193L662.302 25.7442V93.1152C661.34 93.3689 660.488 93.9323 659.878 94.7184C659.268 95.5045 658.933 96.4696 658.927 97.4646C658.928 97.8567 658.989 98.2463 659.108 98.6199L600.843 132.305ZM726.048 205.883L664.567 170.34V101.678C665.336 101.478 666.04 101.08 666.606 100.523L695.308 117.105L726.048 134.843V205.883ZM789.772 169.094L728.314 133.529V62.5558L789.772 98.0536V169.094ZM853.519 58.6368L792.038 23.139V-47.8339L853.519 -12.3361V58.6368ZM855.784 -14.9639V-86.0274L917.174 -121.412V-50.439L855.784 -14.9639ZM980.989 -84.6002V-13.5367L919.44 21.8478V-49.1251L980.989 -84.6002ZM855.784 205.838V134.865L917.174 99.3675V166.716C916.232 166.975 915.398 167.532 914.798 168.303C914.198 169.075 913.863 170.02 913.844 170.997C913.859 171.396 913.919 171.791 914.026 172.175L855.784 205.838ZM980.989 59.9507L919.44 95.4485V24.4529L980.989 -11.0222V59.9507ZM983.254 -84.6229L1041.59 -50.96C1041.49 -50.5823 1041.44 -50.1946 1041.43 -49.8047C1041.44 -48.8264 1041.77 -47.8784 1042.37 -47.1025C1042.96 -46.3267 1043.79 -45.7647 1044.74 -45.5006V21.8478L983.254 -13.5367V-84.6229ZM983.254 134.865L1042.72 100.523C1043.27 101.085 1043.97 101.485 1044.74 101.678V170.34L983.254 205.838V134.865ZM1109.59 206.495L1048.13 170.997L1108.46 136.156L1109.59 135.5L1110.72 136.156L1171.07 170.997L1109.59 206.495ZM1175.6 170.997L1237.08 135.5L1298.54 170.997L1237.08 206.495L1175.6 170.997Z" fill="url(#paint1_linear_339_563)" fill-opacity="0.15"/>
</g>
</g>
<defs>
<linearGradient id="paint0_linear_339_563" x1="1425" y1="268" x2="373" y2="1016" gradientUnits="userSpaceOnUse">
<stop offset="0.328125" stop-color="#0E1422"/>
<stop offset="1" stop-color="#041236"/>
</linearGradient>
<linearGradient id="paint1_linear_339_563" x1="265.121" y1="1380.35" x2="1423.97" y2="-291.992" gradientUnits="userSpaceOnUse">
<stop stop-color="#C8CACC"/>
<stop offset="0.14" stop-color="#D5D6D7"/>
<stop offset="0.38" stop-color="#E4E6E6"/>
<stop offset="0.57" stop-color="#EAEBEB"/>
<stop offset="0.75" stop-color="#EEEFEF"/>
<stop offset="0.93" stop-color="#FAFBFB"/>
<stop offset="0.98" stop-color="white"/>
</linearGradient>
<clipPath id="clip0_339_563">
<rect width="1637" height="1120" fill="white" transform="translate(0 0.339844)"/>
</clipPath>
</defs>
</svg>
